inDegrees=no
num_controls=7
num_derivatives=13
num_iterations=84
num_multipliers=7
num_parameters=0
num_slacks=7
num_states=26
objective=1.153719
objective_accelerations=0.152749
objective_balance=0.009259
objective_effort=0.067555
objective_height=0.917420
objective_ligament=0.006737
solver_duration=1115.986034
status=Solve_Succeeded
success=true
DataType=double
version=3
OpenSimVersion=4.5
endheader
time	/jointset/ground_pelvis/pelvis_tilt/value	/jointset/ground_pelvis/pelvis_tx/value	/jointset/ground_pelvis/pelvis_ty/value	/jointset/hip_l/hip_flexion_l/value	/jointset/hip_l/hip_adduction_l/value	/jointset/hip_l/hip_rotation_l/value	/jointset/back/lumbar_extension/value	/jointset/patellofemoral_l/patellar_flexion_l/value	/jointset/knee_l/knee_flexion_l/value	/jointset/knee_l/knee_adduction_l/value	/jointset/knee_l/knee_rotation_l/value	/jointset/ankle_l/ankle_angle_l/value	/jointset/subtalar_l/subtalar_angle_l/value	/jointset/ground_pelvis/pelvis_tilt/speed	/jointset/ground_pelvis/pelvis_tx/speed	/jointset/ground_pelvis/pelvis_ty/speed	/jointset/hip_l/hip_flexion_l/speed	/jointset/hip_l/hip_adduction_l/speed	/jointset/hip_l/hip_rotation_l/speed	/jointset/back/lumbar_extension/speed	/jointset/patellofemoral_l/patellar_flexion_l/speed	/jointset/knee_l/knee_flexion_l/speed	/jointset/knee_l/knee_adduction_l/speed	/jointset/knee_l/knee_rotation_l/speed	/jointset/ankle_l/ankle_angle_l/speed	/jointset/subtalar_l/subtalar_angle_l/speed	/forceset/tau_hip_flexion_l	/forceset/tau_hip_adduction_l	/forceset/tau_hip_rotation_l	/forceset/tau_knee_flexion_l	/forceset/tau_ankle_angle_l	/forceset/tau_subtalar_angle_l	/forceset/tau_lumbar_extension	lambda_cid13_p0	lambda_cid13_p1	lambda_cid13_p2	lambda_cid13_p3	lambda_cid13_p4	lambda_cid13_p5	lambda_cid14_p0	/jointset/ground_pelvis/pelvis_tilt/accel	/jointset/ground_pelvis/pelvis_tx/accel	/jointset/ground_pelvis/pelvis_ty/accel	/jointset/hip_l/hip_flexion_l/accel	/jointset/hip_l/hip_adduction_l/accel	/jointset/hip_l/hip_rotation_l/accel	/jointset/back/lumbar_extension/accel	/jointset/patellofemoral_l/patellar_flexion_l/accel	/jointset/knee_l/knee_flexion_l/accel	/jointset/knee_l/knee_adduction_l/accel	/jointset/knee_l/knee_rotation_l/accel	/jointset/ankle_l/ankle_angle_l/accel	/jointset/subtalar_l/subtalar_angle_l/accel	gamma_cid13_p0	gamma_cid13_p1	gamma_cid13_p2	gamma_cid13_p3	gamma_cid13_p4	gamma_cid13_p5	gamma_cid14_p0
0.5	-0.1502970315025688	-0.1548270902249172	0.6147096634821684	1.598332853326936	-0.3019261648571848	0.006082194086507448	-0.9323077191964836	1.435368575586526	1.435368575586479	0.04242699868920938	-0.1735004793493242	0.08792145529000973	0.02106848765502993	0.1055713452437224	-0.07183819483721984	-0.9583258236743778	2.651097624628628	0.05287433398605237	0.4921310712669668	-0.4534666478322351	2.764779242991588	2.764779242991554	0.5514329536787873	-0.03497955327241846	0.1832373972518929	0.1186276553556709	-0.4503129243561492	-0.02601069365423038	-0.01491517263655839	-0.395798787607739	0.3415964455191473	0.01762380498156871	0.5176723229665975	56.92110907734391	-11.79271301665798	-5.230951960051168	-56.6128489993305	-828.8183915044269	-53.49554709975541	-0.04148404394658693	2.754752548045086	2.117833442342751	1.092563770324665	-6.188824272126888	0.2917373110345852	-0.7154163638019969	4.597441224491402	-4.172920068307006	-4.172920068306811	-0.708315700326125	0.7142487501314388	-1.012207093986087	-0.008801103432825058	5.072861663264646e-07	-8.53313557907473e-07	-3.14087883938952e-06	-9.400966212953607e-07	-1.474620430656869e-07	-2.800835627792209e-06	2.622889576177548e-07
0.51	-0.1491050095486501	-0.1554407562466028	0.6051835024133103	1.624532442494913	-0.3013832463192992	0.01096459447298129	-0.9366145533769191	1.462804415692233	1.462804415692202	0.0479076234107174	-0.1738160102754032	0.08970312715468003	0.02225385434375689	0.1327390198119791	-0.05100731466117325	-0.9466346637886737	2.588493124139635	0.05565898907689161	0.4843038233577927	-0.4081673100169393	2.722044060942875	2.722044060942322	0.5445833015137506	-0.02820523774929241	0.173141485769444	0.1184039500593633	-0.4527536912984683	-0.02855476200626394	-0.01579324290323715	-0.4039134637744208	0.3443935845115644	0.01654934462814903	0.5208095431864682	57.20774687026968	-11.17224152134571	-5.562911489586352	-55.1806159032222	-836.7029551832824	-53.37359427301383	-0.04110427713679936	2.683685073624526	2.048682610905038	1.248121658601176	-6.345297417680381	0.2647273709413678	-0.8229662167598331	4.456111795724301	-4.375582850830348	-4.375582850908328	-0.6895747762869944	0.6465277620230394	-1.00162844511901	-0.03491047637750404	5.311518438741161e-07	-7.73273054638906e-07	-3.209025040577479e-06	-9.142711136603831e-07	-1.452410574997696e-07	-3.151757443394359e-06	3.092629960416639e-07
0.52	-0.1476441288165675	-0.1558495200053939	0.5957823988554906	1.650096179761922	-0.3008139016779384	0.01576740493790919	-0.940476407832066	1.489802550861918	1.489802550861894	0.05331649465022646	-0.1740662970845106	0.09138517085057669	0.02343583293279128	0.1593431008765765	-0.03085774225832072	-0.9333143214666494	2.523927244434849	0.05815955468104112	0.476213086957229	-0.3644707027746199	2.677238255787086	2.677238255786015	0.5370822572809327	-0.02193072988137227	0.1633117634972065	0.1179500354171441	-0.4551944582407786	-0.03109883035829491	-0.01667131316995242	-0.4120281399411063	0.3471907235039793	0.01547488427473189	0.5239467634063477	57.46574369969508	-10.54575410543594	-5.896978203641674	-53.73682169580645	-845.0181971777391	-53.29703457075388	-0.04073321849405678	2.642033847313216	1.981571887703958	1.418400257588757	-6.581100115285505	0.2349194136966785	-0.7681140620799236	4.276895109896118	-4.587044689722052	-4.587044689721668	-0.8385941138823337	0.6142872190903398	-0.9589692519437729	-0.054842972615099	5.439465444342033e-07	-6.868412188555094e-07	-3.197246801117236e-06	-8.73196541051692e-07	-1.418345768183082e-07	-3.445440470181407e-06	3.482167245000419e-07
0.53	-0.1459204664404275	-0.1560603690678298	0.5865224177820596	1.675004958730632	-0.3002208554948686	0.02048793884607777	-0.9439097712883159	1.516342602658496	1.516342602658458	0.05864748539188917	-0.1742560359014516	0.09297060348748579	0.02461237711698262	0.1852538555277596	-0.01144233962624094	-0.9184342603106079	2.457549927492566	0.06039273357744591	0.4678394195213426	-0.3225170261411039	2.630457880403837	2.630457880403872	0.5290238369322549	-0.01610666039025344	0.1538485893998319	0.1173204841267592	-0.4557542762940138	-0.03350425603296978	-0.01770244856637984	-0.4192019354777733	0.3489057459705691	0.01444388092922764	0.5250938101814836	57.48994416829998	-9.906281777544862	-6.222741669862517	-51.88905396513999	-851.3878401032309	-53.1530621297446	-0.04039080859497334	2.545294917457245	1.901813716980206	1.559925971932038	-6.707801387093781	0.2094043891230854	-0.8798932719684192	4.107348290195171	-4.770741166858094	-4.770741166692424	-0.8031716827132783	0.552302419908961	-0.9289274194732391	-0.07228517838681474	5.453706616368169e-07	-5.98765303445424e-07	-3.114701705153285e-06	-8.202750923672473e-07	-1.361680387491909e-07	-3.656586256781082e-06	3.769325255477345e-07
0.54	-0.1439417567890889	-0.1560810062507407	0.5774186607056528	1.699241613749246	-0.2996071000705318	0.02512315604236322	-0.9469330491082061	1.542405409260396	1.542405409260348	0.06389515079258527	-0.1743903669022767	0.09446361719725317	0.02578157099404292	0.2103525559163976	0.007184633646678045	-0.9020695220617538	2.38950245441452	0.06230140293427926	0.4591497445804379	-0.2824535755029564	2.581789216851316	2.581789216852452	0.5204171890894667	-0.01084916666768294	0.1448279780688995	0.1164799739909075	-0.456314094347229	-0.03590968170764543	-0.01873358396283794	-0.4263757310144445	0.3506207684371527	0.01341287758372068	0.5262408569566387	57.48679093959296	-9.261762892958984	-6.549607630066385	-50.01971483252768	-858.1603091141412	-53.05038234788194	-0.04005609206537533	2.479622994804214	1.82388601587181	1.715335676151319	-6.915131342438028	0.1700175057824848	-0.8313155630835286	3.898849910822412	-4.964702323576732	-4.964702323577207	-0.9482396127043469	0.5009720653808394	-0.8704566986553006	-0.09703474170834293	5.34214558954566e-07	-5.088704063207046e-07	-2.953861363695868e-06	-7.542464616415431e-07	-1.280010116554329e-07	-3.776414245726639e-06	3.943212579708386e-07
0.55	-0.1417163774463854	-0.1559194745983398	0.5684857206762457	1.722789800064477	-0.2989758354387871	0.02967011539471712	-0.9495656899914676	1.567972442004363	1.567972442004346	0.06905402938837238	-0.1744746865676884	0.0958689498686482	0.02694146652017902	0.2345632883526078	0.02497479022717198	-0.8842985112183234	2.319895163816923	0.06388450147929983	0.4501849004042061	-0.2444438758938988	2.531336229453595	2.531336229453558	0.5112751697839685	-0.006117684061954069	0.1363363000640618	0.1154585304528666	-0.455084735260378	-0.03814122828243219	-0.01991621523516058	-0.4325247246238821	0.3512077816707095	0.01246268617076377	0.5254720796103151	57.23993497017052	-8.621488595296583	-6.862293346214229	-47.76479035899425	-862.9528163768526	-52.89654860582801	-0.03974915721675633	2.367829204891843	1.73440084199172	1.840954969422459	-7.019429318363597	0.1427719153697633	-0.9373910025885867	3.696638774256104	-5.127843082483898	-5.127843082659681	-0.909521517368563	0.4431319641256203	-0.8238593932746157	-0.1103830001748724	5.166920540689828e-07	-4.145273085313405e-07	-2.745742275416677e-06	-6.81692450320348e-07	-1.146608713811272e-07	-3.832123944863327e-06	4.05388053859649e-07
0.5600000000000001	-0.1392536846119485	-0.1555844773075631	0.5597370849914695	1.745634733193745	-0.2983306766442901	0.03412576187376785	-0.9518293121209759	1.59302649564743	1.593026495647429	0.07411902010553	-0.1745149122857267	0.09719229855161945	0.02809001084287033	0.2578152542633146	0.04187776132183868	-0.8652086531355503	2.248851817221609	0.06508023548463912	0.4408871699201485	-0.208649824752496	2.479193396671307	2.479193396670097	0.5016396133626285	-0.002030377217958382	0.1284311803841595	0.1142097333019072	-0.4538553761735208	-0.04037277485722795	-0.02109884650747728	-0.4386737182333208	0.3517947949042621	0.01151249475779514	0.5247033022639969	56.96821843170603	-7.977535941442608	-7.174798587464351	-45.48194298640021	-868.1041397586038	-52.77945171707116	-0.03945689374249339	2.287869689703558	1.646448918706352	1.979105124019845	-7.202342541981138	0.09254459784646712	-0.8978928246485343	3.455720217291462	-5.302671400490336	-5.302671400490513	-1.046947035872615	0.3721369130345815	-0.7531450336681698	-0.1425054642917759	4.915298665394012e-07	-3.148463699444028e-07	-2.480888690951358e-06	-6.01307982284564e-07	-9.511299529016462e-08	-3.810891696229373e-06	4.088685259073073e-07
0.5700000000000001	-0.1365634604321427	-0.1550850452726336	0.5511856627892686	1.767762373360115	-0.2976750854354548	0.0384874052129691	-0.9537466309300543	1.617551005452589	1.617551005452552	0.07908515325494742	-0.1745166093896214	0.09843981534585873	0.02922548944544397	0.280051252540199	0.05784512115791385	-0.8448865973021763	2.176474213794628	0.06599835212783782	0.4314049031073223	-0.1752380997070676	2.425459064319521	2.425459064319724	0.4915252989170057	0.001634938752253677	0.1211902306485635	0.1128836499969427	-0.450886592370787	-0.04231398644504949	-0.0224140936136993	-0.443842835993632	0.3513517409821073	0.01062839385145555	0.5220704145281101	56.48355896881141	-7.337455203126531	-7.47245890704261	-42.84968850009172	-871.2883590031706	-52.60765474234967	-0.03916521218688131	2.164754627136409	1.547239672692324	2.08711750230198	-7.285721805167869	0.08578113577591361	-0.9786138050551146	3.220274251588758	-5.446321326088841	-5.446321325876767	-1.002717666407722	0.3547626047606071	-0.6918466492823013	-0.1276992589794111	4.616007686076411e-07	-2.190256961317153e-07	-2.194398726962934e-06	-5.193671293961295e-07	-7.064468014122321e-08	-3.730487125952664e-06	4.059972732019177e-07
